<svg xmlns="http://www.w3.org/2000/svg" viewBox="0 0 225 225">
  <circle cx="112.5" cy="112.5" r="112.5" fill="#000000"/>
  <g transform="translate(22.5, 30) scale(0.8)" fill="#ffffff">
    <path d="M32.5,73.9c.2-.4,0-.9-.3-1.1h0c-9.3-4.4-14.3-11.5-15-21.2-.5-7,2.4-14.2,7.7-19,6.7-6,14.4-7.8,23.2-5.4,5.9,1.6,11.8,6.1,14.7,12,.7,1.5,1.2,2.4,1.3,2.7.2.3.5.4.8.2,27.8-15.8,57-17.9,86.1-4.5,2.9,1.3,6.8,3.4,11.5,6.2.3,0,.6,0,.7-.2h0c.9-2,1.9-4.8,3.5-6.9,7.4-10,20.1-13.5,31.2-7.6,19.8,10.5,15.8,39-5.3,44.9-.2,0-.3.3-.3.5h0c8.1,12.7,13.3,26.2,15.6,40.4.6,3.7.6,8.8,0,13-5.4,39.1-42.5,63.2-78.8,69.2-36.9,6.1-80.8-9-101.8-41.2-8.7-13.3-13-29.4-9.8-45,2.2-10.8,5.9-20.7,10.9-29.6.3-.5,1.6-2.9,4.1-7.2v-.2Z"/>
    <path fill="#000000" d="M112.4,193.6c36.7,0,79.6-21.8,89.3-59.3,2.2-8.4,2.2-16.9,0-25.7-9.5-38-39.2-68.9-78.6-74.4-3.7-.5-6.2-.5-11-.5s-7.3,0-11,.5c-39.4,5.6-69,36.5-78.4,74.5-2.2,8.8-2.1,17.4,0,25.7,9.9,37.5,52.8,59.1,89.5,59.1h.2Z"/>
    <path d="M79.4,137.4c-3.2,1.3-6,4.1-8.8,6.3-1.2.9-2.1,1.6-2.6,2-8.3,6.6-16.5,0-19.8-8.1-1.9-4.6-2.4-9.8-1.6-15.4,1.5-9.9,9.6-17.1,18.7-20.6,9.1-3.6,19.9-3.9,27.8,2.3,4.5,3.5,7.6,7.6,9.3,12.3,3.1,8.1,1.5,18.6-9,19.4-.6,0-1.7.2-3.2.3-3.5.4-7.5.1-10.7,1.4h-.1Z"/>
    <path d="M161.2,101.6c9.1,3.6,17.1,10.7,18.7,20.7.9,5.6.3,10.7-1.6,15.4-3.3,8-11.6,14.6-19.8,8-.5-.4-1.4-1.1-2.6-2-2.8-2.1-5.6-5-8.8-6.3-3.3-1.3-7.2-1.1-10.7-1.4-1.5-.2-2.6-.3-3.2-.3-10.5-.8-12-11.3-9-19.4,1.8-4.7,4.9-8.8,9.4-12.3,7.9-6.2,18.7-5.9,27.7-2.3h0Z"/>
    <path d="M112.4,140.6h8.9c4.6-.2,7.2,4,4.7,8.1-3.2,5.1-7.7,7-13.5,7s-10.3-1.9-13.5-7c-2.6-4.1,0-8.3,4.6-8.1h8.9,0Z"/>
    <path d="M112.6,180.7c-9.1.1-17-4.4-23.7-13.6-.2-.3-.2-.8,0-1.1.7-.7,1.4-1.2,2.2-1.5.4-.1.8,0,1.1.3,6,8,12.7,11.9,20.3,11.8,7.5,0,14.2-4.2,20-12.3.2-.3.7-.5,1.1-.3.8.3,1.6.8,2.3,1.4.3.3.3.7,0,1.1-6.5,9.3-14.3,14-23.4,14.1h.1Z"/>
  </g>
</svg>
