<?xml version="1.0" encoding="UTF-8" standalone="no"?>
<!DOCTYPE svg PUBLIC "-//W3C//DTD SVG 1.1//EN" "http://www.w3.org/Graphics/SVG/1.1/DTD/svg11.dtd">
<svg xmlns="http://www.w3.org/2000/svg" version="1.1" viewBox="0.00 0.00 400.00 234.00">
<path fill="#141c21" d="
  M 132.77 22.44
  A 0.50 0.50 0.0 0 0 133.56 22.04
  L 133.56 10.44
  A 0.74 0.74 0.0 0 1 134.30 9.70
  L 148.56 9.70
  A 0.63 0.63 0.0 0 1 149.19 10.33
  L 149.19 33.12
  A 2.64 2.64 0.0 0 0 150.26 35.24
  Q 176.30 54.38 203.13 74.11
  Q 206.85 76.84 204.28 80.51
  Q 202.84 82.55 200.52 85.53
  Q 197.73 89.12 194.08 86.44
  Q 158.02 59.92 104.60 20.73
  A 0.79 0.78 -44.6 0 0 103.67 20.73
  Q 66.48 48.01 12.02 88.01
  C 6.56 92.02 5.08 86.46 2.35 83.41
  C 0.00 80.78 -0.41 78.21 2.53 76.01
  Q 3.90 74.98 103.00 2.18
  A 1.93 1.92 44.8 0 1 105.27 2.18
  L 132.77 22.44
  Z"
/>
<circle fill="#141c21" cx="347.58" cy="21.50" r="4.55"/>
<path fill="#141c21" d="
  M 380.27 32.26
  L 380.27 21.65
  A 4.21 4.21 0.0 0 1 384.70 17.45
  L 384.95 17.46
  A 4.35 4.34 1.1 0 1 389.11 21.78
  Q 389.19 35.00 389.18 58.01
  C 389.17 63.26 380.87 63.66 381.21 57.38
  A 0.28 0.28 0.0 0 0 380.70 57.21
  Q 375.90 64.36 366.76 60.92
  C 356.21 56.95 355.44 38.78 363.26 31.98
  C 367.90 27.94 374.97 27.84 379.59 32.54
  A 0.40 0.40 0.0 0 0 380.27 32.26
  Z
  M 373.7589 35.7201
  A 9.75 7.10 -90.3 0 0 366.7101 45.5072
  A 9.75 7.10 -90.3 0 0 373.8611 55.2199
  A 9.75 7.10 -90.3 0 0 380.9099 45.4328
  A 9.75 7.10 -90.3 0 0 373.7589 35.7201
  Z"
/>
<path fill="#141c21" d="
  M 256.52 40.55
  C 258.77 42.20 260.93 42.48 261.13 46.07
  Q 261.45 51.87 262.62 57.16
  C 262.98 58.78 262.15 60.79 260.37 61.41
  C 255.72 63.01 252.85 60.57 252.42 55.93
  C 251.96 50.97 252.93 43.98 245.02 44.29
  Q 240.80 44.45 236.57 44.29
  A 0.71 0.71 0.0 0 0 235.83 45.00
  L 235.83 57.18
  A 4.60 4.60 0.0 0 1 230.90 61.77
  L 230.59 61.74
  A 4.99 4.98 1.5 0 1 225.89 56.79
  Q 225.76 28.89 225.99 22.53
  Q 226.09 19.98 228.24 18.68
  Q 229.44 17.95 232.86 17.96
  Q 237.37 17.96 249.89 18.06
  C 257.19 18.11 263.09 22.54 262.93 30.29
  Q 262.78 37.11 256.61 39.78
  A 0.45 0.45 0.0 0 0 256.52 40.55
  Z
  M 235.81 26.16
  L 235.85 36.48
  A 0.59 0.59 0.0 0 0 236.44 37.07
  L 247.52 37.03
  A 5.51 5.24 -0.2 0 0 253.01 31.77
  L 253.01 30.75
  A 5.51 5.24 -0.2 0 0 247.48 25.53
  L 236.40 25.57
  A 0.59 0.59 0.0 0 0 235.81 26.16
  Z"
/>
<path fill="#141c21" d="
  M 289.80 57.23
  C 284.88 62.20 274.92 64.68 270.23 58.12
  C 266.25 52.55 269.02 45.58 275.59 43.85
  Q 279.29 42.87 285.18 42.43
  C 287.05 42.30 289.51 41.71 289.67 39.33
  Q 289.85 36.83 287.04 36.00
  Q 282.02 34.51 278.34 37.60
  C 276.33 39.29 275.38 40.73 272.97 40.11
  C 270.18 39.40 269.98 36.29 271.33 34.18
  C 275.14 28.19 286.18 28.36 292.12 30.14
  C 297.55 31.77 298.48 34.92 298.42 40.57
  C 298.33 47.96 298.16 52.52 299.21 58.31
  A 2.04 1.99 -40.2 0 1 299.11 59.35
  Q 298.13 61.88 295.95 62.01
  Q 291.04 62.31 290.38 57.42
  A 0.34 0.34 0.0 0 0 289.80 57.23
  Z
  M 289.15 46.76
  L 286.90 47.62
  A 1.60 1.25 -52.0 0 1 286.50 47.72
  C 282.92 48.18 275.08 49.13 277.60 53.92
  Q 278.62 55.87 280.45 56.04
  Q 289.83 56.93 289.95 47.32
  A 0.59 0.58 79.7 0 0 289.15 46.76
  Z"
/>
<path fill="#141c21" d="
  M 315.50 58.38
  A 0.40 0.40 0.0 0 0 314.82 58.65
  L 314.78 69.24
  A 4.20 4.20 0.0 0 1 310.34 73.41
  L 310.09 73.40
  A 4.34 4.34 0.0 0 1 305.96 69.07
  Q 305.93 55.88 306.04 32.92
  C 306.07 27.68 314.36 27.31 313.99 33.58
  A 0.28 0.28 0.0 0 0 314.50 33.75
  Q 319.32 26.64 328.42 30.11
  C 338.94 34.11 339.63 52.25 331.80 59.00
  C 327.15 63.02 320.09 63.09 315.50 58.38
  Z
  M 321.1711 35.7507
  A 9.73 7.11 -90.7 0 0 314.1805 45.5669
  A 9.73 7.11 -90.7 0 0 321.4089 55.2093
  A 9.73 7.11 -90.7 0 0 328.3995 45.3931
  A 9.73 7.11 -90.7 0 0 321.1711 35.7507
  Z"
/>
<rect fill="#141c21" x="-4.33" y="-16.40" transform="translate(347.57,45.47) rotate(0.1)" width="8.66" height="32.80" rx="4.19"/>
<path fill="#141c21" d="
  M 308.08 109.96
  A 0.55 0.55 0.0 0 0 308.90 109.47
  Q 308.75 96.34 308.87 83.64
  C 308.94 75.43 320.17 73.23 323.18 81.12
  Q 323.69 82.48 323.69 85.32
  Q 323.67 99.55 323.69 136.50
  C 323.70 151.59 315.33 164.51 300.91 169.30
  C 284.20 174.84 266.66 166.37 259.92 150.13
  C 255.70 139.97 257.41 127.19 264.07 118.34
  C 274.64 104.32 292.61 101.25 308.08 109.96
  Z
  M 308.83 137.98
  A 18.28 18.28 0.0 0 0 290.55 119.70
  A 18.28 18.28 0.0 0 0 272.27 137.98
  A 18.28 18.28 0.0 0 0 290.55 156.26
  A 18.28 18.28 0.0 0 0 308.83 137.98
  Z"
/>
<path fill="#141c21" d="
  M 144.02 96.07
  C 140.23 90.82 143.24 87.12 147.40 83.91
  Q 154.65 78.32 163.09 77.32
  C 176.32 75.76 187.79 86.22 179.05 99.31
  C 176.52 103.10 169.62 110.18 164.52 106.64
  Q 155.03 100.06 148.25 98.67
  Q 147.01 98.42 145.96 97.66
  Q 144.29 96.46 144.02 96.07
  Z"
/>
<path fill="#141c21" d="
  M 62.45 96.22
  Q 62.21 96.63 60.63 97.95
  Q 59.64 98.78 58.42 99.12
  Q 51.76 101.00 42.77 108.25
  C 37.94 112.15 30.54 105.59 27.75 102.00
  C 18.08 89.58 28.76 78.31 42.06 78.91
  Q 50.56 79.29 58.19 84.34
  C 62.57 87.24 65.85 90.71 62.45 96.22
  Z"
/>
<path fill="#141c21" d="
  M 53.11 165.99
  A 0.32 0.32 0.0 0 0 52.78 166.31
  Q 52.63 192.30 52.76 221.01
  C 52.77 224.65 51.40 228.76 47.34 229.39
  C 38.61 230.75 37.87 224.30 38.03 217.07
  Q 38.09 213.95 38.06 136.00
  Q 38.06 129.56 41.71 122.74
  C 56.62 94.87 97.64 101.18 103.56 132.07
  C 106.55 147.70 97.22 163.72 81.92 169.19
  Q 68.10 174.14 54.13 166.31
  Q 53.60 166.01 53.11 165.99
  Z
  M 89.35 138.00
  A 18.24 18.24 0.0 0 0 71.11 119.76
  A 18.24 18.24 0.0 0 0 52.87 138.00
  A 18.24 18.24 0.0 0 0 71.11 156.24
  A 18.24 18.24 0.0 0 0 89.35 138.00
  Z"
/>
<path fill="#141c21" d="
  M 160.55 165.82
  A 0.35 0.35 0.0 0 0 160.04 165.65
  C 143.58 176.44 122.64 170.29 113.06 153.43
  C 109.18 146.59 108.18 136.45 110.60 128.73
  Q 115.01 114.61 127.66 108.45
  C 150.09 97.52 174.90 113.60 175.26 138.28
  Q 175.46 151.76 175.25 165.17
  Q 175.20 168.14 172.18 170.39
  C 167.28 174.02 162.49 170.73 160.55 165.82
  Z
  M 160.50 137.97
  A 18.28 18.28 0.0 0 0 142.22 119.69
  A 18.28 18.28 0.0 0 0 123.94 137.97
  A 18.28 18.28 0.0 0 0 142.22 156.25
  A 18.28 18.28 0.0 0 0 160.50 137.97
  Z"
/>
<path fill="#141c21" d="
  M 381.64 165.85
  A 0.35 0.35 0.0 0 0 381.14 165.68
  C 364.65 176.43 343.73 170.24 334.19 153.36
  C 330.33 146.51 329.35 136.37 331.79 128.66
  Q 336.23 114.55 348.89 108.42
  C 371.34 97.54 396.11 113.67 396.41 138.35
  Q 396.58 151.83 396.34 165.24
  Q 396.29 168.21 393.26 170.45
  C 388.36 174.07 383.57 170.77 381.64 165.85
  Z
  M 381.66 137.98
  A 18.27 18.27 0.0 0 0 363.39 119.71
  A 18.27 18.27 0.0 0 0 345.12 137.98
  A 18.27 18.27 0.0 0 0 363.39 156.25
  A 18.27 18.27 0.0 0 0 381.66 137.98
  Z"
/>
<path fill="#141c21" d="
  M 216.09 106.11
  C 230.77 106.10 243.83 116.25 247.58 130.20
  C 249.98 139.14 248.41 154.22 248.82 161.75
  C 249.11 167.04 245.74 171.75 240.03 170.66
  C 235.20 169.74 234.09 165.84 234.14 160.81
  Q 234.16 159.55 234.23 146.02
  Q 234.29 135.46 232.78 132.23
  C 229.63 125.50 223.69 121.06 216.09 121.06
  C 208.50 121.06 202.55 125.51 199.41 132.24
  Q 197.90 135.48 197.97 146.04
  Q 198.05 159.57 198.08 160.83
  C 198.13 165.85 197.02 169.76 192.19 170.68
  C 186.48 171.77 183.11 167.07 183.40 161.78
  C 183.80 154.25 182.22 139.17 184.61 130.23
  C 188.35 116.27 201.40 106.11 216.09 106.11
  Z"
/>
<path fill="#141c21" d="
  M 73.09 201.66
  C 77.15 196.20 85.98 195.08 89.77 201.61
  A 0.39 0.38 51.9 0 0 90.38 201.69
  Q 97.17 194.56 105.73 198.52
  C 109.33 200.17 109.88 203.96 109.96 208.02
  Q 110.10 215.37 109.91 223.90
  A 3.91 3.91 0.0 0 1 105.95 227.72
  L 105.68 227.72
  A 3.88 3.88 0.0 0 1 101.86 224.07
  Q 101.79 222.92 101.79 210.38
  C 101.79 207.06 100.97 203.48 97.07 203.92
  C 92.35 204.45 91.16 208.09 91.26 212.63
  Q 91.38 217.93 91.28 223.86
  A 3.96 3.95 -89.4 0 1 87.32 227.74
  L 87.17 227.74
  A 3.94 3.94 0.0 0 1 83.24 223.78
  Q 83.32 215.72 83.16 208.91
  C 83.01 202.33 75.99 202.71 73.32 207.36
  Q 72.73 208.40 72.77 210.91
  Q 72.87 217.42 72.73 223.70
  A 4.11 4.11 0.0 0 1 68.69 227.71
  L 68.45 227.71
  A 3.80 3.80 0.0 0 1 64.59 223.95
  Q 64.53 216.11 64.57 200.92
  C 64.58 196.93 70.20 195.52 71.79 199.48
  Q 72.05 200.14 72.53 201.57
  A 0.32 0.32 0.0 0 0 73.09 201.66
  Z"
/>
<path fill="#141c21" d="
  M 221.20 203.15
  Q 221.06 202.58 222.73 200.00
  C 227.05 193.34 236.13 199.69 230.50 204.66
  A 1.48 1.43 21.1 0 1 229.65 205.02
  L 226.06 205.32
  A 4.04 4.04 0.0 0 0 222.72 207.65
  Q 221.64 209.99 221.53 213.77
  Q 221.39 218.69 221.47 223.76
  A 3.88 3.88 0.0 0 1 217.43 227.69
  L 217.19 227.68
  A 3.99 3.99 0.0 0 1 213.36 223.75
  Q 213.31 220.52 213.37 200.94
  C 213.38 196.54 218.84 195.88 220.49 199.54
  A 1.99 1.92 -55.7 0 1 220.65 200.49
  Q 220.47 202.77 220.91 203.30
  A 0.17 0.17 0.0 0 0 221.20 203.15
  Z"
/>
<path fill="#141c21" d="
  M 242.83 205.55
  Q 242.93 207.56 245.01 208.05
  Q 252.04 209.73 254.74 210.76
  C 264.10 214.31 261.46 225.10 252.91 227.18
  Q 244.18 229.32 237.12 224.95
  C 235.15 223.73 233.43 220.47 235.31 218.31
  C 238.11 215.10 241.25 219.46 243.41 220.85
  Q 247.33 223.35 250.83 221.32
  Q 252.16 220.55 252.31 219.75
  A 2.70 2.52 12.8 0 0 250.32 216.82
  C 243.68 215.08 235.25 214.33 234.59 207.58
  C 233.51 196.61 247.17 195.79 254.49 198.52
  C 257.04 199.47 259.81 201.15 259.00 204.32
  Q 258.13 207.73 254.44 206.60
  A 2.40 2.28 71.5 0 1 253.67 206.19
  C 250.40 203.61 246.94 201.65 243.31 204.48
  A 1.27 1.26 -20.9 0 0 242.83 205.55
  Z"
/>
<path fill="#141c21" d="
  M 356.11 201.65
  C 360.16 196.20 368.97 195.09 372.76 201.60
  A 0.39 0.38 51.9 0 0 373.37 201.68
  Q 380.14 194.57 388.69 198.52
  C 392.28 200.17 392.83 203.95 392.91 208.00
  Q 393.05 215.34 392.86 223.85
  A 3.90 3.90 0.0 0 1 388.91 227.67
  L 388.64 227.67
  A 3.88 3.87 88.6 0 1 384.82 224.02
  Q 384.75 222.88 384.75 210.36
  C 384.75 207.05 383.94 203.47 380.04 203.91
  C 375.33 204.44 374.14 208.07 374.24 212.60
  Q 374.36 217.89 374.26 223.81
  A 3.95 3.94 -89.4 0 1 370.31 227.69
  L 370.16 227.69
  A 3.93 3.93 0.0 0 1 366.24 223.73
  Q 366.32 215.69 366.16 208.89
  C 366.01 202.32 359.00 202.70 356.34 207.34
  Q 355.75 208.38 355.79 210.89
  Q 355.89 217.39 355.75 223.65
  A 4.10 4.10 0.0 0 1 351.71 227.66
  L 351.47 227.66
  A 3.79 3.79 0.0 0 1 347.62 223.90
  Q 347.56 216.08 347.60 200.91
  C 347.61 196.93 353.22 195.52 354.81 199.48
  Q 355.07 200.14 355.55 201.56
  A 0.32 0.32 0.0 0 0 356.11 201.65
  Z"
/>
<path fill="#141c21" d="
  M 145.4109 214.3685
  A 13.58 13.58 0.0 0 1 131.7600 227.8772
  L 128.9201 227.8624
  A 13.58 13.58 0.0 0 1 115.4114 214.2114
  L 115.4291 210.8315
  A 13.58 13.58 0.0 0 1 129.0800 197.3228
  L 131.9199 197.3376
  A 13.58 13.58 0.0 0 1 145.4286 210.9886
  L 145.4109 214.3685
  Z
  M 130.3935 203.0300
  A 9.48 7.09 -90.1 0 0 123.3200 212.5224
  A 9.48 7.09 -90.1 0 0 130.4265 221.9900
  A 9.48 7.09 -90.1 0 0 137.5000 212.4976
  A 9.48 7.09 -90.1 0 0 130.3935 203.0300
  Z"
/>
<path fill="#141c21" d="
  M 161.27 218.37
  Q 161.56 218.37 161.67 217.99
  Q 164.13 209.86 166.83 200.32
  A 4.09 4.09 0.0 0 1 171.91 197.51
  L 172.25 197.60
  A 3.70 3.70 0.0 0 1 174.76 202.42
  L 166.54 225.36
  A 3.92 3.91 -87.0 0 1 163.79 227.84
  Q 163.64 227.88 161.26 227.88
  Q 158.89 227.88 158.74 227.84
  A 3.92 3.91 87.1 0 1 155.99 225.35
  L 147.80 202.41
  A 3.70 3.70 0.0 0 1 150.31 197.59
  L 150.65 197.50
  A 4.09 4.09 0.0 0 1 155.73 200.31
  Q 158.42 209.86 160.87 217.99
  Q 160.98 218.37 161.27 218.37
  Z"
/>
<path fill="#141c21" d="
  M 185.36 214.67
  C 185.59 219.74 190.65 222.33 195.19 221.26
  C 197.52 220.70 198.34 219.89 200.49 218.33
  Q 201.69 217.45 202.89 217.64
  C 207.67 218.40 205.68 223.82 202.53 225.52
  C 196.76 228.65 188.13 228.84 182.89 224.90
  C 176.35 219.97 175.91 209.76 179.91 203.46
  C 186.02 193.83 203.58 195.36 206.95 206.85
  C 208.09 210.73 208.52 214.21 203.29 214.11
  Q 197.42 214.00 185.95 214.06
  A 0.59 0.59 0.0 0 0 185.36 214.67
  Z
  M 185.94 209.41
  L 199.60 209.29
  A 0.13 0.13 0.0 0 0 199.73 209.16
  L 199.73 209.09
  A 6.79 6.20 -0.5 0 0 192.88 202.95
  L 192.54 202.95
  A 6.79 6.20 -0.5 0 0 185.81 209.21
  L 185.81 209.28
  A 0.13 0.13 0.0 0 0 185.94 209.41
  Z"
/>
<path fill="#141c21" d="
  M 304.41 216.41
  C 306.50 216.16 309.38 217.39 308.83 219.90
  C 307.13 227.65 297.63 228.89 291.04 227.15
  C 281.24 224.56 279.79 213.29 283.15 205.14
  C 286.63 196.74 299.58 194.60 306.29 200.26
  C 308.87 202.45 310.45 206.35 306.36 208.09
  A 3.03 3.03 0.0 0 1 303.02 207.44
  L 300.34 204.77
  A 2.53 2.51 -12.8 0 0 299.38 204.17
  C 291.78 201.54 289.59 208.41 289.82 214.47
  C 290.01 219.28 294.50 223.36 299.39 220.77
  C 301.03 219.90 302.10 217.93 303.46 216.81
  A 1.86 1.82 -67.1 0 1 304.41 216.41
  Z"
/>
<path fill="#141c21" d="
  M 342.2429 214.2847
  A 13.76 13.76 0.0 0 1 328.2449 227.8025
  L 325.4053 227.7529
  A 13.76 13.76 0.0 0 1 311.8875 213.7549
  L 311.9371 210.9153
  A 13.76 13.76 0.0 0 1 325.9351 197.3975
  L 328.7747 197.4471
  A 13.76 13.76 0.0 0 1 342.2925 211.4451
  L 342.2429 214.2847
  Z
  M 327.1265 203.0400
  A 9.47 7.06 -89.9 0 0 320.0500 212.4977
  A 9.47 7.06 -89.9 0 0 327.0935 221.9800
  A 9.47 7.06 -89.9 0 0 334.1700 212.5223
  A 9.47 7.06 -89.9 0 0 327.1265 203.0400
  Z"
/>
<circle fill="#141c21" cx="271.21" cy="223.03" r="4.54"/>
</svg>
